<svg width="29" height="30" fill="none" xmlns="http://www.w3.org/2000/svg"><g clip-path="url(#clip0)"><path d="M14.5 29.5C22.508 29.5 29 23.008 29 15S22.508.5 14.5.5 0 6.992 0 15s6.492 14.5 14.5 14.5z" fill="#fff"/><path d="M14.5 28.5C21.956 28.5 28 22.456 28 15S21.956 1.5 14.5 1.5 1 7.544 1 15s6.044 13.5 13.5 13.5z" stroke="#000" stroke-width="2"/><path d="M20.519 14.636a1 1 0 010 1.728L11.5 21.623a1 1 0 01-1.5-.864V10.241a1 1 0 011.5-.864l9.019 5.259z" fill="#000"/></g><defs><clipPath id="clip0"><path fill="#fff" transform="translate(0 .5)" d="M0 0h29v29H0z"/></clipPath></defs></svg>