<svg width="43" height="44" fill="none" xmlns="http://www.w3.org/2000/svg"><path fill-rule="evenodd" clip-rule="evenodd" d="M15.592 35.95h10.816V16.626H15.592v19.322z" fill="#EA5C0F"/><path fill-rule="evenodd" clip-rule="evenodd" d="M16.279 26.288c0-3.92 1.846-7.41 4.72-9.66A12.354 12.354 0 0013.36 14C6.534 14 1 19.502 1 26.288c0 6.787 5.534 12.29 12.36 12.29 2.884 0 5.537-.983 7.64-2.629-2.875-2.25-4.721-5.74-4.721-9.66z" fill="#DD0C17"/><path fill-rule="evenodd" clip-rule="evenodd" d="M41 26.288c0 6.787-5.534 12.29-12.36 12.29-2.884 0-5.537-.983-7.64-2.629 2.875-2.25 4.722-5.74 4.722-9.66S23.875 18.876 21 16.626A12.353 12.353 0 0128.64 14C35.465 14 41 19.502 41 26.288z" fill="#F79E1B"/><path fill-rule="evenodd" clip-rule="evenodd" d="M40.614 34.015v-.589h-.125l-.144.405-.145-.405h-.125v.589h.088v-.444l.136.383h.091l.136-.384v.445h.088zm-.793 0v-.489h.16v-.099h-.409v.1h.16v.488h.089z" fill="#F69F00"/><path fill-rule="evenodd" clip-rule="evenodd" d="M40.953 13.16a6.236 6.236 0 00-7.97-2.195 6.12 6.12 0 00-2.697 8.235 6.138 6.138 0 004.41 3.261c-.231 7.272-6.327 12.981-13.615 12.75-7.079-.223-12.72-5.98-12.784-13.047a12.982 12.982 0 018.499-12.207 2.077 2.077 0 001.325-2.402l-.015-.065a2.069 2.069 0 011.845-2.515 17.14 17.14 0 013.472.034 2.1 2.1 0 002.327-1.97A2.156 2.156 0 0023.773.833 21.765 21.765 0 0021.5.714C9.626.714 0 10.32 0 22.167 0 34.015 9.626 43.62 21.5 43.62S43 34.015 43 22.167c0-2.097-.422-6.619-2.047-9.007z" fill="#222"/><path fill-rule="evenodd" clip-rule="evenodd" d="M29.61 2.343c1.23 0 2.227.995 2.227 2.222a2.225 2.225 0 01-2.228 2.223 2.225 2.225 0 01-2.227-2.223c0-1.227.997-2.222 2.227-2.222z" fill="#222"/></svg>