<svg width="24" height="24" fill="none" xmlns="http://www.w3.org/2000/svg"><path d="M2.727 0A2.747 2.747 0 000 2.727v18.546A2.747 2.747 0 002.727 24h18.546A2.747 2.747 0 0024 21.273V2.727A2.747 2.747 0 0021.273 0H2.727zm0 2.182h18.546c.31 0 .545.234.545.545v18.546c0 .31-.234.545-.545.545H2.727a.535.535 0 01-.545-.545V2.727c0-.31.234-.545.545-.545zm3.205 1.875a1.875 1.875 0 10-.09 3.75 1.875 1.875 0 00.09-3.75zm9.851 4.977c-1.563 0-2.603.856-3.032 1.67h-.07V9.273H9.614v10.363h3.205v-5.114c0-1.35.268-2.658 1.943-2.658 1.65 0 1.671 1.525 1.671 2.727v5.045h3.204v-5.693c0-2.786-.592-4.91-3.852-4.91zm-11.42.239v10.363h3.24V9.273h-3.24z" fill="#000"/></svg>