<svg width="25" height="25" fill="none" xmlns="http://www.w3.org/2000/svg"><path d="M12.5 2.252c3.338 0 3.733.013 5.051.073 1.219.056 1.88.26 2.321.43.584.227 1 .498 1.437.936.438.437.709.853.935 1.437.172.44.375 1.102.43 2.32.061 1.32.074 1.714.074 5.052 0 3.338-.013 3.733-.073 5.051-.056 1.219-.26 1.88-.43 2.321-.227.584-.498 1-.936 1.438a3.87 3.87 0 01-1.437.934c-.44.172-1.102.375-2.321.43-1.318.061-1.713.074-5.051.074s-3.733-.013-5.051-.073c-1.219-.056-1.88-.26-2.321-.43-.584-.227-1-.498-1.437-.936a3.873 3.873 0 01-.935-1.437c-.172-.44-.375-1.102-.43-2.32-.061-1.319-.074-1.714-.074-5.052 0-3.338.013-3.733.073-5.051.056-1.219.26-1.88.43-2.321.227-.584.498-1 .936-1.437a3.873 3.873 0 011.437-.935c.44-.172 1.102-.375 2.32-.43 1.319-.061 1.714-.074 5.052-.074zM12.5 0C9.105 0 8.68.014 7.346.075c-1.33.06-2.239.272-3.034.581-.822.32-1.52.747-2.214 1.442A6.127 6.127 0 00.656 4.312c-.309.795-.52 1.704-.58 3.034C.013 8.68 0 9.106 0 12.5c0 3.395.014 3.82.075 5.154.06 1.33.272 2.239.581 3.034.32.822.747 1.52 1.442 2.214a6.126 6.126 0 002.214 1.442c.795.309 1.704.52 3.034.58 1.333.062 1.76.076 5.154.076 3.395 0 3.82-.014 5.154-.075 1.33-.06 2.239-.272 3.034-.581a6.125 6.125 0 002.214-1.442 6.127 6.127 0 001.442-2.214c.309-.795.52-1.704.58-3.034.062-1.334.076-1.76.076-5.154 0-3.395-.014-3.82-.075-5.154-.06-1.33-.272-2.239-.581-3.034a6.126 6.126 0 00-1.442-2.214A6.126 6.126 0 0020.688.656c-.795-.309-1.704-.52-3.034-.58C16.32.013 15.894 0 12.5 0zm0 6.081a6.419 6.419 0 100 12.838 6.419 6.419 0 000-12.838zm0 10.586a4.167 4.167 0 110-8.334 4.167 4.167 0 010 8.334zm8.172-10.84a1.5 1.5 0 11-3 0 1.5 1.5 0 013 0z" fill="#0A0A08"/></svg>