<svg width="26" height="19" fill="none" xmlns="http://www.w3.org/2000/svg"><path fill-rule="evenodd" clip-rule="evenodd" d="M3.9 2.714h18.2c.345 0 .675.143.92.398.243.254.38.6.38.96v10.857c0 .36-.137.705-.38.96a1.273 1.273 0 01-.92.397H3.9c-.345 0-.675-.143-.92-.398a1.39 1.39 0 01-.38-.96V4.072c0-.36.137-.705.38-.96.245-.254.575-.397.92-.397zM0 4.071c0-1.08.41-2.115 1.142-2.879A3.819 3.819 0 013.9 0h18.2c1.034 0 2.026.429 2.758 1.192A4.164 4.164 0 0126 4.072v10.857c0 1.08-.41 2.115-1.142 2.879A3.819 3.819 0 0122.1 19H3.9a3.819 3.819 0 01-2.758-1.192A4.164 4.164 0 010 14.928V4.072zM10.4 5.43l5.2 4.07-5.2 4.071V5.43z" fill="#000"/></svg>